<?xml version="1.0" encoding="utf-8"?>
<!-- Generator: Adobe Illustrator 16.0.3, SVG Export Plug-In . SVG Version: 6.00 Build 0)  -->
<!DOCTYPE svg PUBLIC "-//W3C//DTD SVG 1.1//EN" "http://www.w3.org/Graphics/SVG/1.1/DTD/svg11.dtd">
<svg version="1.1" id="圖層_1" xmlns="http://www.w3.org/2000/svg" xmlns:xlink="http://www.w3.org/1999/xlink" x="0px" y="0px"
	 width="340px" height="28.5px" viewBox="1.232 0 340 28.5" enable-background="new 1.232 0 340 28.5" xml:space="preserve">
<g>
	<g>
		<path fill="#0978CD" d="M91.624,6.298h17.044v2.424h-6.458c-0.313,0.852-0.69,1.653-1.134,2.41v12.387h-2.721v-8.982
			c-1.578,1.58-3.49,3.094-5.733,4.541l-1.644-2.662c2.218-1.096,4.201-2.479,5.95-4.146c1.096-1.057,1.917-2.238,2.465-3.545
			h-7.769V6.298z M103.738,11.403c1.996,1.736,3.802,3.692,5.42,5.871l-2.427,1.879c-1.187-1.969-2.935-4.063-5.244-6.28
			L103.738,11.403z"/>
		<path fill="#0978CD" d="M121.49,5.065l0.861,1.78c-1.056,0.263-2.283,0.462-3.679,0.604v0.826h4.089v1.857h-4.089v0.723h3.679
			v6.574h-3.679v0.706h3.6v1.8h-3.6v0.783c1.265-0.078,2.524-0.195,3.777-0.354c0.926-2.271,1.389-5.027,1.389-8.276v-0.606h-0.783
			v-2.35h0.783V5.063h2.349v4.069h3.601l-0.118,7.633c-0.04,3.105-0.28,4.953-0.724,5.537c-0.404,0.614-1.474,0.921-3.209,0.921
			l-0.411-2.68c0.495,0.063,0.783,0.097,0.861,0.097c0.339,0,0.561-0.097,0.665-0.295c0.235-0.338,0.365-1.473,0.391-3.404
			l0.04-5.459h-1.096v0.606c-0.039,4.594-0.77,8.399-2.192,11.429l-1.448-1.193c-3.183,0.482-6.64,0.781-10.371,0.899l-0.372-2.271
			c1.486,0,2.942-0.033,4.363-0.098v-0.923h-3.502v-1.799h3.502v-0.706h-3.66v-6.574h3.66V10.13h-4.148V8.272h4.148V7.626
			c-1.03,0.053-2.125,0.079-3.287,0.079l-0.627-2.016C116.01,5.691,119.089,5.483,121.49,5.065z M114.68,13.44h1.644v-0.859h-1.644
			V13.44z M116.324,15.711v-0.86h-1.644v0.86H116.324z M118.457,12.578v0.86h1.721v-0.86H118.457z M120.178,15.711v-0.86h-1.721
			v0.86H120.178z"/>
		<path fill="#0978CD" d="M143.938,5.065c0.092,0.418,0.17,0.83,0.234,1.233h6.576v1.896h-2.35
			c-0.469,0.651-1.023,1.207-1.662,1.662c1.135,0.301,2.296,0.636,3.482,0.998l-0.627,1.233h1.41v1.897h-5.5v1.312h4.952v1.978
			h-4.952v0.86h4.307v1.879h-4.307v0.938h5.402v2.016h-14.148v-2.016h6.184v-0.938h-4.227v-1.019
			c-0.076,0.131-0.156,0.254-0.234,0.371l-1.723-1.174c-0.246,1.959-0.795,3.713-1.643,5.262l-2.349-1.954
			c1.097-1.472,1.644-3.38,1.644-5.714v-3.698h1.604l-0.666-1.722c2.126-0.014,3.875-0.1,5.246-0.256
			c-1.318-0.34-2.597-0.639-3.837-0.899l0.724-1.019h-3.229V6.296h6.85c-0.09-0.34-0.188-0.653-0.293-0.94L143.938,5.065z
			 M136.835,17.492c0.77-1.007,1.352-2.175,1.742-3.505h-1.664v1.8C136.914,16.376,136.89,16.942,136.835,17.492z M142.94,18.137
			v-0.86h-3.268c-0.156,0.313-0.313,0.602-0.47,0.86H142.94z M142.94,15.299v-1.312h-3.129l1.174,0.156
			c-0.157,0.416-0.307,0.803-0.451,1.153L142.94,15.299L142.94,15.299z M139.849,8.194c1.371,0.275,2.812,0.606,4.325,0.998
			c0.55-0.271,1.05-0.604,1.507-0.998H139.849z M139.89,12.09h7.494c-1.07-0.339-2.107-0.658-3.111-0.958
			C143.019,11.562,141.56,11.881,139.89,12.09z"/>
		<path fill="#0978CD" d="M165.625,13.282l2.192,1.232c-0.73,1.478-1.592,2.739-2.584,3.797c1.88,1.031,4.229,1.808,7.045,2.328
			l-1.428,2.661c-2.688-0.651-5.199-1.733-7.535-3.248c-0.024-0.012-0.045-0.024-0.059-0.039c-2.152,1.438-4.781,2.531-7.885,3.287
			l-1.271-2.583c2.609-0.365,4.963-1.122,7.064-2.27c0.025-0.017,0.045-0.028,0.059-0.043c-1.096-1.026-2.134-2.242-3.111-3.639
			l2.016-1.113c0.967,1.316,1.982,2.404,3.053,3.268C164.157,15.944,164.974,14.733,165.625,13.282z M159.422,9.761l1.978,1.313
			c-1.463,1.971-3.27,3.565-5.422,4.791l-1.39-2.209C156.519,12.546,158.13,11.248,159.422,9.761z M164.119,4.986
			c0.272,0.664,0.496,1.422,0.666,2.271h6.848v2.25h-16.965v-2.25h7.063c-0.158-0.549-0.346-1.097-0.567-1.644L164.119,4.986z
			 M166.858,9.664c1.879,1.276,3.574,2.719,5.088,4.323l-2.251,1.724c-1.108-1.463-2.753-3.008-4.931-4.64L166.858,9.664z"/>
		<path fill="#0978CD" d="M177.878,5.516h13.563v7.924h-8.123c-0.299,0.34-0.598,0.646-0.898,0.92h10.252v3.875
			c0,2.312-0.316,3.729-0.957,4.267c-0.457,0.534-1.631,0.803-3.522,0.803h-1.231l-0.449-2.506c1.068,0.056,1.695,0.08,1.877,0.08
			c0.508,0,0.848-0.08,1.02-0.235c0.311-0.181,0.469-0.796,0.469-1.842v-2.482h-1.117c-0.377,1.267-1.016,2.42-1.916,3.463
			c-1.161,1.437-2.682,2.682-4.559,3.738l-2.271-2.095c1.813-0.834,3.307-1.769,4.48-2.799c0.782-0.688,1.35-1.462,1.702-2.31
			h-1.762c-0.586,1.006-1.317,1.846-2.19,2.523c-1.306,1.02-2.908,1.905-4.814,2.661l-1.723-2.19
			c1.709-0.457,3.188-1.045,4.44-1.764c0.629-0.363,1.149-0.773,1.567-1.23h-1.84c-0.965,0.641-2.041,1.215-3.229,1.723
			l-1.432-2.174c2.021-0.65,3.639-1.459,4.854-2.426h-2.191V5.516H177.878z M180.462,8.567h8.396V7.569h-8.396V8.567z
			 M188.856,11.403v-0.959h-8.396v0.959H188.856z"/>
		<path fill="#0978CD" d="M206.354,5.065c0.065,0.365,0.138,0.723,0.217,1.077h7.376v3.149h-1.779l-0.039,0.703h1.998v1.86h-2.137
			l-0.134,1.879h-13.719l0.176-1.803h-1.897v-1.859h2.055l0.06-0.78h-1.937V6.142h7.006c-0.094-0.313-0.186-0.601-0.275-0.862
			L206.354,5.065z M197.822,14.222h14.814v6.731h-2.289c1.211,0.155,2.549,0.364,4.01,0.627l-0.566,1.938
			c-2.319-0.629-4.637-1.072-6.944-1.332l0.485-1.231h-4.461l0.532,1.231c-1.595,0.691-3.714,1.115-6.362,1.271l-0.625-1.875
			c1.693-0.04,3.457-0.25,5.283-0.627h-3.877V14.222L197.822,14.222z M198.921,8.353h12.699V7.786h-12.699V8.353z M200.406,16.082
			h9.646v-0.45h-9.646V16.082z M200.406,17.804h9.646v-0.449h-9.646V17.804z M210.052,19.524v-0.448h-9.645v0.448H210.052z
			 M200.837,12.168h2.855l0.037-0.45h-2.838L200.837,12.168z M201.031,10.369h2.838l0.062-0.45h-2.839L201.031,10.369z
			 M206.021,11.718l-0.039,0.45h3.365l0.041-0.45H206.021z M206.201,9.919l-0.041,0.45h3.365l0.041-0.45H206.201z"/>
		<path fill="#0978CD" d="M220.292,4.91l2.347,0.525c-0.024,0.092-0.043,0.178-0.056,0.256h12.736v1.878h-3.521v0.625h3.188v4.304
			h-12.524V8.194h3.211V7.569h-3.366V6.591c-0.287,0.951-0.619,1.878-0.998,2.777v13.933h-2.367v-9.567
			c-0.418,0.625-0.854,1.228-1.313,1.799l-0.859-2.738C218.376,10.655,219.548,8.024,220.292,4.91z M222.934,13.03h11.604v7.848
			h-2.431c0.994,0.157,2.091,0.364,3.291,0.625l-0.567,2.018c-1.896-0.629-3.801-1.07-5.724-1.332l0.511-1.311h-2.254l0.512,1.232
			c-1.361,0.688-3.17,1.113-5.43,1.271l-0.609-1.958c1.33-0.038,2.711-0.223,4.137-0.547h-3.039L222.934,13.03L222.934,13.03z
			 M226.005,10.778V9.92h-1.272v0.858H226.005z M225.378,15.299h6.713v-0.626h-6.713V15.299z M225.378,17.274h6.713v-0.625h-6.713
			V17.274z M232.091,19.231v-0.645h-6.713v0.645H232.091z M229.528,8.194V7.569h-1.565v0.625H229.528z M229.371,10.778V9.92h-1.35
			v0.858H229.371z M232.738,10.778V9.92h-1.352v0.858H232.738z"/>
		<path fill="#0978CD" d="M238.75,6.923h7.338V5.279h2.504v1.644h7.279v2.057h-5.164c1.654,1.199,3.664,2.111,6.023,2.738
			l-1.389,2.192c-0.482-0.146-0.979-0.326-1.486-0.552v6.576h-13.09v-6.75c-0.551,0.248-1.1,0.488-1.646,0.726l-1.076-2.429
			c2.256-0.614,4.149-1.446,5.678-2.504h-4.973L238.75,6.923L238.75,6.923z M238.828,20.877h16.967v2.093h-16.967V20.877z
			 M242.781,12.09h3.307V9.625C245.096,10.535,243.996,11.358,242.781,12.09z M243.27,15.007h8.082v-0.861h-8.082V15.007z
			 M251.352,17.882v-1.018h-8.082v1.018H251.352z M248.591,12.09h3.035c-0.248-0.169-0.504-0.346-0.765-0.528
			c-0.835-0.611-1.593-1.259-2.271-1.937V12.09L248.591,12.09z"/>
		<path fill="#0978CD" d="M269.104,5.203l2.504,0.41c-0.224,0.571-0.455,1.121-0.704,1.644h6.01v7.023
			c0,4.16-0.306,6.731-0.908,7.712c-0.445,0.978-1.566,1.465-3.357,1.465h-1.135l-0.49-2.504c1.082,0.041,1.711,0.061,1.881,0.061
			c0.549,0,0.92-0.194,1.113-0.587c0.301-0.441,0.449-1.997,0.449-4.658V9.428h-4.854c-0.365,0.537-0.763,1.038-1.193,1.509h4.99
			v9.155h-6.281v-8.844l-1.019-1.487c0.197-0.169,0.365-0.326,0.511-0.47h-7.457V7.158h2.604c-0.115-0.641-0.256-1.215-0.412-1.723
			l2.957-0.232c0.117,0.649,0.213,1.303,0.293,1.955h2.369V8.92C267.896,7.875,268.607,6.635,269.104,5.203z M259.945,10.211h6.242
			v2.056h-6.242V10.211z M259.945,13.203h6.242v2.018h-6.242V13.203z M266.268,16.237v6.908h-2.33v-0.86h-1.646v1.019h-2.348v-7.063
			h6.322L266.268,16.237L266.268,16.237z M262.292,20.387h1.646v-2.094h-1.646V20.387z M269.318,14.594h1.881v-1.721h-1.881V14.594z
			 M271.199,18.137v-1.819h-1.881v1.819H271.199z"/>
	</g>
	<g>
		<path fill="#FF7200" d="M282.16,5.769h5.245v14.952c0,1.554-0.548,2.328-1.644,2.328h-1.955l-0.336-2.504
			c0.642,0.117,1.014,0.176,1.115,0.176c0.301,0,0.451-0.21,0.451-0.628v-3.07h-1.822c-0.168,2.389-0.633,4.508-1.387,6.36
			l-2.173-1.879c0.871-1.788,1.312-4.092,1.312-6.91V5.769H282.16z M283.316,10.289h1.723V7.94h-1.723V10.289z M283.316,14.928
			h1.723v-2.504h-1.723V14.928z M295.136,7.942h-4.521v4.403h7.026v1.644c-0.365,2.164-0.966,3.953-1.802,5.363
			c0.836,0.664,1.775,1.243,2.82,1.738l-1.725,2.211c-1.02-0.652-1.896-1.303-2.643-1.957c-0.887,0.848-1.904,1.502-3.051,1.957
			l-0.631-1.096v1.02h-2.289V5.769h9.314l-0.038,3.229c0,0.94-0.188,1.594-0.567,1.959c-0.339,0.403-1.07,0.604-2.189,0.604h-2.582
			l-0.334-2.211c1.396,0.053,2.258,0.078,2.582,0.078c0.418,0,0.627-0.27,0.627-0.803V7.942H295.136L295.136,7.942z M290.613,20.858
			c0.783-0.34,1.449-0.767,1.998-1.271c-0.053-0.055-0.098-0.109-0.139-0.177c-0.742-1.007-1.324-2.689-1.74-5.05h-0.119V20.858z
			 M292.982,14.36c0.273,1.382,0.646,2.439,1.115,3.172c0.431-0.901,0.75-1.956,0.957-3.172H292.982z"/>
		<path fill="#FF7200" d="M301.634,5.693h7.673v1.878c-0.483,0.964-1.229,1.942-2.25,2.937c0.26,0.207,0.481,0.396,0.666,0.565
			l-0.373,0.488h2.584v1.625c1.147-0.313,2.125-0.718,2.935-1.214c-0.468-0.497-0.904-1.05-1.31-1.663
			c-0.367,0.483-0.729,0.926-1.099,1.332l-2.096-1.509c1.646-1.278,2.865-2.923,3.662-4.931l2.426,0.313
			c-0.209,0.457-0.43,0.882-0.664,1.271h5.381v2.016h-0.881c-0.457,1.174-1.09,2.213-1.897,3.113
			c0.916,0.48,1.963,0.854,3.151,1.113l-1.153,2.271c-1.335-0.405-2.572-1.003-3.722-1.799c-0.43,0.312-0.903,0.599-1.426,0.858
			h1.445c-0.014,0.613-0.043,1.188-0.1,1.724h3.934l-0.018,3.894c0,1.146-0.189,1.938-0.568,2.369
			c-0.326,0.469-1.035,0.703-2.133,0.703h-1.979l-0.312-2.25c1.056,0.053,1.706,0.08,1.956,0.08c0.416,0,0.625-0.497,0.625-1.489
			v-1.252h-1.84c-0.209,0.873-0.502,1.585-0.881,2.134c-0.885,1.316-2.271,2.399-4.147,3.248l-1.644-2.095
			c1.694-0.642,2.914-1.422,3.66-2.349c0.221-0.274,0.396-0.586,0.525-0.938h-2.094v-2.055h2.545
			c0.063-0.431,0.104-0.862,0.115-1.291c-0.533,0.229-1.102,0.456-1.701,0.663l-0.861-1.213c-0.206,1.123-0.469,2.049-0.783,2.779
			l-1.898-0.607c0.354-0.873,0.604-1.793,0.744-2.758h-0.979v7.769c0,1.253-0.549,1.878-1.643,1.878h-2.019l-0.331-2.211
			c0.741,0.053,1.17,0.079,1.271,0.079c0.298,0,0.447-0.149,0.447-0.45v-3.816c-0.715,1.357-1.551,2.492-2.504,3.406l-1.391-2.095
			c1.354-0.964,2.585-2.487,3.68-4.56h-3.307V11.56h4.089c-0.978-0.875-1.916-1.607-2.817-2.212l1.313-1.153
			c0.601,0.354,1.142,0.697,1.623,1.039c0.455-0.457,0.854-0.942,1.192-1.449h-4.834V5.692L301.634,5.693L301.634,5.693z
			 M312.947,8.803c0.508,0.744,1.043,1.364,1.604,1.859c0.523-0.55,0.951-1.168,1.291-1.859H312.947z"/>
		<path fill="#FF7200" d="M322.755,17.512l1.722,0.077c-0.022,1.58-0.188,3.223-0.487,4.934l-2.017-0.234
			C322.391,20.853,322.65,19.259,322.755,17.512z M324.77,4.986l2.351,0.707c-0.681,1.735-1.318,3.059-1.92,3.973
			c0.432-0.054,0.836-0.112,1.215-0.179c0.393-0.702,0.764-1.422,1.117-2.151l1.721,1.058V5.696h10.703v15.967
			c0,1.146-0.65,1.723-1.957,1.723h-2.094l-0.41-2.212c0.991,0.054,1.563,0.078,1.723,0.078c0.273,0,0.412-0.151,0.412-0.45V7.707
			h-6.205v15.596h-2.172v-2.268l-1.273,0.469c-0.246-1.565-0.561-2.896-0.938-3.992l1.43-0.409c0.244,0.586,0.508,1.309,0.781,2.17
			v-2.799l-1.351,0.471c-0.053-0.381-0.11-0.736-0.178-1.078c-1.722,0.434-3.431,0.793-5.125,1.078l-0.412-2.351
			c0.313,0,0.619-0.004,0.918-0.018c0.731-0.914,1.41-1.873,2.039-2.88c-0.851,0.132-1.757,0.236-2.724,0.314l-0.313-2.093
			c0.274-0.015,0.528-0.026,0.765-0.042C323.667,8.588,324.302,6.957,324.77,4.986z M326.572,17.512
			c0.234,1.188,0.418,2.622,0.549,4.306l-1.94,0.215c-0.013-1.355-0.097-2.815-0.25-4.381L326.572,17.512z M329.251,14.928V8.785
			c-1.108,2.084-2.328,3.938-3.66,5.556c0.576-0.078,1.154-0.168,1.742-0.273c-0.115-0.455-0.231-0.879-0.35-1.271l1.406-0.371
			C328.667,13.073,328.951,13.91,329.251,14.928z M333.322,8.119c0.496,0.77,0.887,1.491,1.176,2.17l-0.959,0.489h1.035
			c0.354-0.799,0.66-1.715,0.922-2.762l1.799,0.412c-0.233,0.953-0.477,1.736-0.725,2.35h0.725v1.938h-5.537v-1.938h0.898
			c-0.246-0.834-0.521-1.571-0.82-2.211L333.322,8.119z M335.123,12.795c0.185,0.522,0.332,1.122,0.449,1.799h1.645v1.978h-2.584
			v1.02c0,0.521,0.14,0.783,0.412,0.783H337v2.018h-2.502c-1.309,0-1.959-0.674-1.959-2.018v-1.803h-0.781v-1.978h1.74
			c-0.117-0.454-0.262-0.917-0.43-1.389L335.123,12.795z"/>
	</g>
</g>
<path fill="#003685" d="M16.092,4.605c-1.06-0.274-1.904-1.113-2.22-2.193c-0.327,1.12-1.222,1.981-2.336,2.221v0.001
	C6.558,5.7,2.828,10.087,2.828,15.337c0,5.136,3.57,9.445,8.386,10.628c-3.271-1.11-5.625-4.209-5.625-7.854
	c0-1.888,0.631-3.627,1.692-5.021c-0.262,0.735-0.405,1.527-0.405,2.354c0,3.438,2.477,6.299,5.744,6.895
	c-1.82-0.544-3.146-2.23-3.146-4.227c0-2.438,1.975-4.412,4.411-4.412c2.436,0,4.411,1.976,4.411,4.412
	c0,1.994-1.326,3.683-3.146,4.227c3.267-0.596,5.743-3.455,5.743-6.895c0-0.826-0.143-1.618-0.405-2.354
	c1.062,1.394,1.693,3.134,1.693,5.021c0,3.646-2.354,6.744-5.625,7.854c4.816-1.183,8.386-5.492,8.386-10.628
	C24.939,10.038,21.14,5.619,16.092,4.605"/>
<path fill="#5F5F5F" d="M30.352,11.171c0-0.125-0.778-1.109-0.839-1.553c-0.061-0.444,0.41-2.565,1.321-1.391
	c0.911,1.174,1.755,2.266,2.001,3.059c0.387,1.244,0.365,1.996,0.3,3.664c-0.088,2.236,0.006,2.482-0.054,3.498
	c-0.06,1.015-0.122,3.328-0.971,3.9c-0.851,0.571-1.731-0.43-1.639-1.667c0.091-1.235-0.001-3.667,0.12-4.237
	c0.122-0.57,0.074-2.64,0.104-3.199C30.738,12.457,30.352,11.171,30.352,11.171"/>
<path fill="#5F5F5F" d="M47.023,7.586c-0.208-0.433-2.259-2.39-2.636-2.311c-0.377,0.079-0.911,0.459-1.4,0.559
	c-0.49,0.098-1.642,0.355-3.071,0.412c0,0-1.395,0.315-1.282-0.945c0.113-1.26,0.17-1.694,0.057-2.048
	c-0.113-0.354-0.453-0.965-0.83-1.536c-0.376-0.572-0.503-0.937-1.05-1.055c-0.547-0.118-1.024-0.344-1.665,0.109
	c0,0-0.962,1.083-0.416,1.793c0.547,0.708,1.282,1.103,1.528,1.654c0.244,0.551,0.471,1.674,0.433,2.087
	c-0.038,0.414-0.15,0.848-0.81,1.123c-0.661,0.275-2.847,0.354-3.299,0.729c-0.453,0.375-0.622,0.63,0.019,1.242
	c0,0,0.465,0.623,1.408,0.486c0.943-0.138,0.892-0.311,2.23-1.02c0.057-0.02,0.811-0.314,1.112-0.039
	c0.302,0.275,0.439,2.299-0.164,2.652c-0.603,0.356-2.544,1.399-2.846,1.635c-0.302,0.238-0.604,0.377-0.396,1.341
	c0.208,0.965,0.905,2.58,1.395,2.147c0.49-0.434,0.547-0.75,0.735-1.32c0.188-0.571,1.697-2.284,1.697-2.284s0.377-0.611,0.868,0.04
	c0.489,0.648,1.053,1.773,1.788,2.383c0.735,0.611,1.571,1.025,2.419,1.196c1.261,0.25,1.656,0.131,1.603,1.19
	c0,0,0.052,1.617-0.099,1.834c-0.15,0.219-0.348,0.646-1.193,0.281c-0.45-0.195-0.866,0.413-0.678,1.023
	c0.188,0.611,0.358,0.808,0.83,1.397c0.471,0.591,0.943,1.084,1.15,1.202c0.208,0.118,0.792,0.197,1.168-0.334
	c0.377-0.533,0.831-1.479,0.943-1.893c0.114-0.414,0.321-11.864,0.358-12.416C46.966,8.354,47.23,8.021,47.023,7.586 M44.572,8.235
	c-0.018,0.197-0.147,0.552-0.204,0.984c-0.057,0.434-0.039,2.678-0.02,3.407c0.02,0.729-0.047,2.349-0.047,2.349
	c-0.378,0.7-0.427,0.351-1.189-0.047c-0.612-0.32-0.995-0.84-2.238-2.178c-1.331-1.434-1.436-3.973-1.45-4.053
	c-0.094-0.512,0.623-0.324,1.811-0.521s1.848-0.315,2.583-0.374C44.554,7.744,44.591,8.039,44.572,8.235"/>
<path fill="#5F5F5F" d="M68.786,9.056c0,0-0.087,0.241-0.13,0.656c-0.038,0.352,0.503,0.72,1.987,0.219
	c1.484-0.503,2.751-1.398,2.751-1.398s0.917-0.131,1.245,0.022c0.328,0.153,0.109,0.458-0.48,1.093
	c-0.589,0.631-1.839,2.276-1.839,2.276s-0.423,0.597-0.934-0.292c-0.365-0.633-1.07-1.439-1.617-0.13
	c-0.546,1.312-0.114,0.94,0.148,1.399c0.262,0.459,1.075,0.959-0.497,1.569c0,0-4.402,2.464-4.489,2.529
	c-0.087,0.063-0.109,0.392,0.568,1.067c0.677,0.678,0.703,0.61,1.335,0.306c0.633-0.306,1.428-1.261,2.018-1.588
	c0.59-0.328,1.155-0.573,1.482-0.313c0.328,0.263,1.234-0.313,2.042-0.991c0.808-0.677,1.672-1.646,2.611-1.578
	c0.939,0.064,2.33,0.305,2.973,0.004c0.63-0.295,1.176-0.659,1.109-1.096c-0.065-0.438-1.048-1.855-1.965-1.181
	c-0.917,0.679-1.091,1.048-1.942,0.698c0,0-0.83-0.413-0.175-0.829c0.655-0.415,1.943-1.376,1.813-2.118
	c-0.131-0.743-0.437-0.633-0.415-1.135c0.022-0.502,0.633-1.311-0.043-1.485c-0.678-0.175-1.267,0-1.66-0.437
	s-0.394-0.982-0.939-1.573c-0.546-0.589-1.66-0.327-1.791,0.11c-0.131,0.437-0.109,0.502,0.306,1.092
	c0.415,0.59,0.917,1.026-0.284,1.834c0,0-0.365,0.261-1.348,0.457C70.626,8.248,68.939,7.987,68.786,9.056"/>
<path fill="#5F5F5F" d="M78.36,15.644c0,0-0.396-0.736-0.974-0.471c-0.578,0.266-1.149,0.631-2.241,1.234
	c-0.615,0.34-2.783,1.548-3.434,1.789c-0.65,0.24-0.975,0.724-1.566-0.192c-0.482-0.748-0.891-0.313-0.819-0.337
	c0,0-0.963,0.964-0.53,1.902c0.573,1.242,1.759,2.818,2.336,3.371c0.579,0.557,1.084,0.748,2.289,0.41
	c1.205-0.337,2.024-0.41,2.771-0.385c0.747,0.023,1.59-0.458,1.108-1.133c-0.482-0.674-1.191-0.969-0.662-1.548
	c0.146-0.159,0.556-0.563,1.092-1.378c0.662-1.008,1.172-1.189,1.437-1.696C79.432,16.706,79.01,16.63,78.36,15.644 M75.807,18.942
	c-0.072,0.361-0.771,1.156-1.253,1.76c-0.481,0.602-0.963,0.554-1.686,0.891c-0.723,0.337-0.747,0.098-0.964-0.048
	c-0.217-0.146-0.848-0.905-0.848-0.905c-0.434-0.771,0.463-0.828,1.209-1.046c0.747-0.218,1.301-0.916,2.458-1.397
	C75.879,17.715,75.879,18.581,75.807,18.942"/>
<path fill="#5F5F5F" d="M87.319,15.985c-0.935-0.959-1.542-1.323-2.882-2.646c0,0-0.528-0.502,0.318-1.805
	c0.655-1.008,0.748-1.86,1.576-2.852c0.828-0.99,0.561-1.469-0.213-2.609c-0.774-1.141-1.203-2.011-1.896-1.021
	c-0.695,0.99-2.243,2.58-3.498,3.571c0,0-0.32,0.39-0.694,0.51c-0.374,0.12-0.988-0.09-1.202,0.27c0,0-0.374,0.841,0,1.141
	s0.908,0,0.961,1.831c0.054,1.83,0.054,13.112,0.161,13.743c0.106,0.629,0,1.261,0.561,1.5c0.561,0.24,0.651,0.734,1.133-0.438
	c0.479-1.169,0.934-1.191,0.56-1.732c-0.491-0.709-0.439-7.643-0.439-7.643s0.053-0.811,0.801-0.451
	c0.748,0.361,3.204,1.291,3.204,1.291s0.934,0.57,1.468-0.39C87.773,17.296,88.254,16.946,87.319,15.985 M84.036,16.246
	c0,0-0.668,0.091-1.709,0c-1.041-0.089-0.614-1.92-0.614-1.92c-0.134-1.8,0-2.341-0.428-3.212c-0.427-0.868,0.24-1.409,0.24-1.409
	l0.108-0.062c1.067-0.479,1.365-0.732,2.033-0.914c0.668-0.181-0.939,3.586-0.939,3.586c-0.241,1.74,0.721,2.1,1.229,2.971
	C84.462,16.157,84.036,16.246,84.036,16.246"/>
<path fill="#5F5F5F" d="M58.258,14.26c0,0,1.414-1.647,1.548-2.995c0,0,0.102-0.738,0.067-1.379
	c-0.033-0.639,0.404-1.313,0.976-1.21c0.572,0.101,2.395,1.297,1.723,2.172c-0.673,0.875-2.066,3.287-2.066,3.287
	s-0.299,0.442,0.611,0.375c0.909-0.067,0.677,0.034,1.972-0.798c1.971-1.268,2.385-0.498,2.957,0.143
	c0.571,0.639-0.014,1.015-1.427,1.586s-3.6,1.244-4.475,1.516c-0.875,0.268-0.707,0.199-1.144-0.54
	C58.562,15.674,57.552,14.631,58.258,14.26"/>
<path fill="#5F5F5F" d="M59.514,19.544c0,0-0.64-0.271,0.673-1.212c0,0,1.186-0.683,1.971-1.47c0.471-0.471,0.48,0.479,0.351,1.401
	c-0.104,0.745-0.909,1.38-0.64,1.716c0.27,0.338,2.895,3.097,4.576,3.902c1.684,0.811,3.702,1.313,4.341,1.448
	c0.64,0.135-0.482,2.722-3.619,1.702c-1.895-0.616-2.104-0.842-3.571-2.313c-0.948-0.947-1.592-2.855-2.365-2.385
	c-0.775,0.47-2.255,2.513-3.634,2.613c0,0-1.881-1.047-1.881-1.485c0-0.437,0.232-0.487,1.241-0.759
	c1.009-0.27,2.86-1.211,3.23-1.614C60.558,20.688,60.558,20.89,59.514,19.544"/>
<path fill="#5F5F5F" d="M56.971,20.878c-0.435-1.023-1.058-1.251-1.058-1.251s-3.021,1.929-3.606,2.101
	c-0.122,0.035-0.22,0.021-0.3-0.017c-1.362-1.224-0.386-4.033-0.386-4.421c0-0.391-1.008-0.618-1.008-0.618
	c-1.074-0.196-1.424-0.86-1.887,0.063c1.573,2.129,0.424,4.164,0.651,6.244c0.422,0.664,0.943,0.973,1.646,1.317
	c0.004,0.005,0.009,0.006,0.013,0.009c0.721,0.479,1.965-1.559,5.232-2.84C57.05,21.16,56.971,20.878,56.971,20.878"/>
<path fill="#5F5F5F" d="M56.796,13.853c-0.437-0.301-0.805,0.488-1.344,0.916c-0.388,0.307-0.766-0.105-0.766-0.105
	s-0.205-0.357-0.205-1.465c0-0.604,0.166-1.084,0.4-1.432c-0.017,0.006-0.037,0.012-0.054,0.02c0.431-0.526,1.382-0.51,1.861-1.006
	c0.266-0.478,0.726-0.938,0.363-1.518c-0.691-0.499-1.621-0.273-2.327,0.088c-1.332,1.18-3.615,1.318-5.237,1.172
	c-0.598,0.019-1.621-0.273-1.799,0.438c0.488,0.705,1.096,1.384,1.857,1.771c1,0.48,1.876-0.022,2.903-0.134
	c0.195,0.188,0.325,0.519,0.325,1.084c0,1.894-0.029,5.337-0.029,5.337s0.015,0.697,0.568,0.793
	c0.554,0.096,1.489,0.635,1.547-0.429c0.059-1.063,0.083-1.96,0.083-1.873s-0.037-0.534,0.763-1.062c0,0,1.664-0.908,1.852-1.115
	C58.25,14.58,57.234,14.149,56.796,13.853"/>
</svg>
